<?xml version="1.0" encoding="utf-8"?>
<!-- Generator: Adobe Illustrator 24.2.1, SVG Export Plug-In . SVG Version: 6.00 Build 0)  -->
<svg version="1.1" id="Layer_1" xmlns="http://www.w3.org/2000/svg" xmlns:xlink="http://www.w3.org/1999/xlink" x="0px" y="0px"
	 viewBox="0 0 242.9 36.6" style="enable-background:new 0 0 242.9 36.6;" xml:space="preserve">
<style type="text/css">
	.st0{fill:#020202;}
</style>
<g>
	<path class="st0" d="M1.4,32.8c1,0,1.9,0.1,2.8-0.9C4.7,31.4,4.9,30.7,5,30c0.2-3.6,0.3-7.1,0.5-10.7c0.1-3.3,0.3-6.7,0.4-10
		c0.1-2-0.8-3-2.9-3c-0.2,0-0.3,0-0.6,0c0-0.6,0-1.2,0-1.8c0.5,0,0.9-0.1,1.3,0.1c2.1,0.6,4.2,1,6.4,0.7c4.7-0.7,5.3-1.2,5.7-0.1
		c1.6,4.1,3.2,8.2,4.8,12.4c0.1,0.2,0.2,0.4,0.3,0.8c0.7-2.3,1.4-4.4,2.1-6.6c0.7-2.2,1.4-4.4,2.1-6.6c0.2-0.6,0.3-0.9,3.3,0.3
		c3.6,1.5,7.6,1,11.1-0.8c0.2-0.1,0.2,0,0.4,0v1.8c-0.3,0-0.6,0-0.9,0c-1.5,0-2.6,1.2-2.6,2.7c0.1,3.1,0.3,6.2,0.4,9.3
		c0.2,3.8,0.3,7.7,0.5,11.5c0,0.4,0.1,0.9,0.2,1.3c0.3,1.1,1.2,1.5,2.3,1.6c0.3,0,0.6,0,1,0c0,0.6,0,1.2,0,1.8H23.4v-1.7
		c0.5,0,0.9,0,1.4-0.1c1.3-0.2,2.1-1.5,2.1-2.8c-0.1-2.5-0.2-5-0.3-7.5c-0.2-3.6-0.3-7.2-0.6-10.8c-2.7,7.9-5.5,15.8-8.3,23.9
		c-3.2-7.4-6.3-14.7-9.4-22c0,0-0.1,0-0.1,0c-0.1,1-0.1,2-0.2,3.1c-0.2,4.3-0.4,8.5-0.5,12.8c-0.1,2.5,0.7,3.3,3.2,3.4
		c0.1,0,0.1,0,0.2,0c0,0.5,0,1.1,0,1.8c-0.2,0-0.5,0-0.7,0c-2.7,0-5.3,0-8,0c-0.3,0-0.5,0-0.8,0.1C1.4,34,1.4,33.4,1.4,32.8z"/>
	<path class="st0" d="M83.4,34.5c0-0.7,0-1.4,0-2.2c-0.2,0.1-0.3,0.2-0.4,0.3c-4.7,5-12.5,2.9-14.9-2.6c-2.2-4.9-2-9.8,1.3-14.3
		c2-2.7,4.9-4.1,8.2-4.5c1.7-0.2,3.5-0.3,5.3,0.2c0-0.7,0-1.4,0-2c0-0.2-0.2-0.3-0.3-0.5c-0.9-0.9-1.8-1.8-2.6-2.6
		c4.4-1.8,8.8-3.5,13.2-5.2c0,0.1,0,0.4,0,0.7c0,9.4,0,18.8,0,28.2c0,0.2,0,0.5,0,0.7c0.1,1.2,0.6,1.8,1.9,1.9
		c0.4,0,0.7,0.1,1.2,0.1c0,0.3,0,0.5,0,0.8c0,0.3,0,0.6,0,0.9C91.9,34.5,87.7,34.5,83.4,34.5z M77.1,22.8c0,0,0.1,0,0.1,0
		c0.1,1.3,0,2.6,0.2,3.9c0.2,1.3,0.5,2.5,0.9,3.7c0.3,0.8,1,1.1,1.8,1.1c0.9,0,1.5-0.4,1.8-1.2c0.2-0.5,0.4-1,0.5-1.6
		c0.6-3.6,0.6-7.2,0.2-10.8c-0.1-1-0.4-2-0.8-2.9c-0.7-1.4-2.5-1.4-3.4-0.1c-0.3,0.5-0.6,1.1-0.7,1.6C77.5,18.7,77.3,20.7,77.1,22.8
		z"/>
	<path class="st0" d="M161.1,22.5c0,0.4,0,0.8,0,1.2c0,2,0,4,0,6.1c0,1.7,1.4,3,3.1,3.1c0.1,0,0.2,0,0.4,0v1.7h-17.4v-1.7
		c0.6-0.1,1.1-0.1,1.7-0.2c0.9-0.2,1.6-0.9,1.8-1.8c0.1-0.4,0.1-0.8,0.1-1.1c0-6.8,0-13.6,0-20.3c0-0.3,0-0.6,0-0.9
		c-0.1-1.3-1-2.1-2.3-2.2c-0.4,0-0.7,0-1.2,0c0-0.3,0-0.6,0-0.9c0-0.3,0-0.6,0-0.9c0.2,0,0.5,0,0.7,0c6.1,0,12.1,0,18.2,0
		c2,0,4,0.4,5.8,1.3c2.8,1.4,4.3,4.5,4.1,7.6c-0.4,4.2-3,6.6-6.8,8c-2.3,0.8-4.7,1-7.1,1C161.7,22.5,161.5,22.5,161.1,22.5z
		 M161.1,6.8c-0.1,0.6,0,0.2,0,3.3c0,3.2,0,3.9,0,7.6c0,0.5,0,1.1,0.1,1.7c0.3,1,1.3,1.5,2.2,0.9c0.5-0.3,1-0.9,1.3-1.4
		c0.8-1.3,0.9-2.7,1-4.2c0.1-2,0.1-3.9-0.7-5.8C164.2,7.1,163.1,6.5,161.1,6.8z"/>
	<path class="st0" d="M129.5,19.9c0-1.3,0.1-2.6,0-3.9c-0.1-1.5-1.1-2.4-2.5-2.4c-1.3,0-2.4,1-2.4,2.5c0,0.6,0.1,1.3,0.1,1.9
		c0.2,1.7-0.8,3.2-2.5,3.6c-2.7,0.7-4.9-1.3-4.5-4.1c0.3-2.1,1.5-3.5,3.2-4.6c2-1.3,4.3-1.7,6.6-1.8c2.6-0.1,5.1,0,7.6,1.1
		c2.8,1.2,4.5,4.1,4.6,7.2c0.1,3.5,0,7.1,0,10.6c0,0.3,0,0.7,0.1,0.9c0.2,0.3,0.5,0.5,0.8,0.5c0.3,0,0.6-0.3,0.8-0.5
		c0.2-0.3,0.1-0.8,0.1-1.1c0-0.7,0-1.3,0-2h1.9c0.6,4-0.8,7.1-5.5,7.7c-0.7,0.1-1.4,0.1-2.1,0c-2.4-0.4-3.9-1.8-4.4-4.3
		c-0.1,0.1-0.3,0.2-0.3,0.3c-2.2,3-5.3,4.2-9,4c-0.6,0-1.2-0.1-1.8-0.2c-3.7-0.9-5.4-4.5-3.6-8c0.8-1.6,2.1-2.6,3.6-3.5
		c2.7-1.6,5.6-2.6,8.6-3.5c0.2-0.1,0.4-0.1,0.6-0.2C129.5,20,129.5,19.9,129.5,19.9z M129.6,21.8c-0.4,0.3-0.6,0.5-0.9,0.7
		c-0.8,0.8-1.4,1.8-1.7,2.8c-0.5,1.6-0.7,3.1-0.3,4.7c0.1,0.6,0.5,1,1.1,1.1c0.7,0.1,1.1-0.2,1.5-0.8c0.1-0.3,0.3-0.6,0.3-0.9
		C129.6,26.9,129.6,24.5,129.6,21.8z"/>
	<path class="st0" d="M189.1,11.1c2.8,0,5.5,0.6,7.8,2.1c3.8,2.5,5.5,6.1,5.4,10.6c-0.2,5.8-4.1,10.4-10,11.4
		c-3.3,0.6-6.6,0.4-9.7-1c-4.9-2.2-7.2-6.9-6.8-12c0.5-6.1,5-10.1,10.8-10.8C187.5,11.2,188.3,11.1,189.1,11.1z M186.2,22.5
		c0.1,2.4,0.2,4.1,0.4,5.8c0.1,1.3,0.3,2.5,1,3.6c0.8,1.3,2.3,1.3,3.1,0c0.3-0.5,0.6-1.1,0.7-1.7c0.8-4.3,0.7-8.7,0.2-13
		c-0.1-0.9-0.5-1.9-1-2.7c-0.6-1.1-2.2-1.1-2.9,0c-0.3,0.5-0.6,1.1-0.7,1.6C186.6,18.4,186.4,20.8,186.2,22.5z"/>
	<path class="st0" d="M64.9,22.1H52.2c0.4,3.2,1.1,6.3,3.9,8.3c2.6,1.9,5.4,1.5,8.1,0.1c0.1,0,0.2-0.1,0.3-0.2
		c0.1-0.1,0.2-0.1,0.4-0.2c0,0.7,0,1.4,0,2.1c0,0.2-0.2,0.3-0.4,0.5c-2,1.6-4.3,2.5-6.8,2.7c-3,0.3-5.9,0.1-8.7-1.3
		c-4.4-2.2-6.8-6.6-6.3-11.4c0.2-2.3,0.8-4.4,2.1-6.4c2.3-3.4,5.6-4.9,9.6-5.1c1.7-0.1,3.4,0.1,5,0.7c3.1,1.3,4.6,3.7,5.3,6.9
		C64.8,19.8,64.8,20.9,64.9,22.1z M52,20.2c1.3,0,2.3,0.1,3.4,0c0.7,0,1.2-0.5,1.4-1.3c0.2-1.2,0.1-2.3-0.3-3.4
		c-0.3-0.8-1-1.2-1.9-1.1c-1,0-1.8,0.7-2.1,2C52.2,17.6,52.1,18.9,52,20.2z"/>
	<path class="st0" d="M221.9,18.8c-0.1,0.1-0.2,0.1-0.2,0.1c-1.2,0.2-2,0-2.5-1.3c-0.5-1.4-1.6-2.5-2.9-3.2
		c-1.1-0.6-2.2-0.8-3.4-0.5c-1.3,0.3-2,1.4-1.8,2.7c0.1,0.5,0.4,0.9,0.8,1.1c0.9,0.4,1.9,0.8,2.8,1.2c1.8,0.8,3.7,1.5,5.4,2.5
		c5,3,4,9.2,0.2,11.8c-2.2,1.6-4.7,2.2-7.4,2.3c-2.9,0.1-5.6-0.3-8.3-1.4c-0.4-0.2-0.7-0.6-0.7-1.1c0-1.7,0-3.4,0-5.2
		c0.7,0,1.3,0,1.9,0c0.1,0,0.3,0.2,0.4,0.4c1,1.2,1.9,2.4,2.9,3.5c1.2,1.2,2.8,1.6,4.5,1.2c0.6-0.1,1.2-0.4,1.6-0.8
		c1.1-0.9,0.9-2.4-0.3-3.1c-0.9-0.5-2-0.9-2.9-1.4c-1.6-0.8-3.3-1.6-4.8-2.6c-4.6-3.1-3.6-9.4,0.3-11.9c2.7-1.7,5.6-2.1,8.7-1.8
		c1.7,0.2,3.3,0.6,4.9,1.3c0.4,0.2,0.6,0.5,0.6,1C221.9,15.3,221.9,17,221.9,18.8z"/>
	<path class="st0" d="M227.3,13.8c-0.6,0-1.2,0-1.8,0c0,0-0.1-0.1-0.1-0.1c4-3.3,7.9-6.6,12-10.1V12h3.9v1.8c-1.1,0-2.1,0-3.2,0
		c-0.6,0-0.8,0.2-0.8,0.8c0,5,0,10.1,0,15.1c0,1.2,1,2.2,2.2,2.1c0.6,0,1.1-0.3,1.8-0.5c0,0.7,0,1.3,0,2c0,0.2-0.3,0.4-0.5,0.5
		c-2.6,1.5-5.5,1.9-8.5,1.5c-0.4,0-0.8-0.1-1.2-0.3c-2.8-1.1-3.9-3.2-4-5.8c0-4.8,0-9.7,0-14.5C227.3,14.4,227.3,14.1,227.3,13.8z"
		/>
	<g>
		<path class="st0" d="M113.9,32.8c-2.2-0.1-2.7-0.6-2.7-2.8c0-6.1,0-12.3,0-18.4c0-0.3,0-0.5,0-0.7c-4.4,1.8-8.8,3.5-13.2,5.2
			c0.9,0.9,1.8,1.7,2.7,2.6c0.2,0.2,0.3,0.4,0.3,0.7c0,3.8,0,7.6,0,11.4c0,1.1-0.6,1.7-1.7,1.9c-0.4,0.1-0.9,0.1-1.3,0.1v1.7h16.3
			c0-0.6,0-1.1,0-1.7C114.1,32.8,114,32.8,113.9,32.8z"/>
		<path class="st0" d="M106,11.5c2.8,0,5-2.2,5.1-5c0-2.7-2.2-5.1-4.9-5.2c-2.9-0.1-5.3,2.2-5.3,5.1C100.9,9.3,103.1,11.6,106,11.5z
			"/>
	</g>
</g>
</svg>
